<svg width="2175" height="200" viewBox="0 0 2175 200" fill="none" xmlns="http://www.w3.org/2000/svg">
<path d="M702.364 147L717.818 53.9091H777.455L775.091 68.0455H732.318L728.136 93.3182H766.818L764.455 107.455H725.773L719.227 147H702.364ZM795.92 148.409C791.496 148.409 787.648 147.621 784.375 146.045C781.102 144.439 778.693 142.076 777.148 138.955C775.633 135.833 775.254 131.985 776.011 127.409C776.678 123.47 777.951 120.212 779.83 117.636C781.739 115.061 784.072 113 786.83 111.455C789.617 109.879 792.648 108.697 795.92 107.909C799.223 107.121 802.587 106.545 806.011 106.182C810.193 105.758 813.572 105.364 816.148 105C818.754 104.636 820.708 104.091 822.011 103.364C823.314 102.606 824.102 101.455 824.375 99.9091V99.6364C824.92 96.2121 824.375 93.5606 822.739 91.6818C821.102 89.803 818.375 88.8636 814.557 88.8636C810.557 88.8636 807.193 89.7424 804.466 91.5C801.739 93.2576 799.754 95.3333 798.511 97.7273L783.602 95.5455C785.481 91.303 788.057 87.7576 791.33 84.9091C794.602 82.0303 798.375 79.8788 802.648 78.4545C806.951 77 811.542 76.2727 816.42 76.2727C819.754 76.2727 823.011 76.6667 826.193 77.4545C829.405 78.2424 832.239 79.5455 834.693 81.3636C837.178 83.1515 838.996 85.5909 840.148 88.6818C841.33 91.7727 841.527 95.6364 840.739 100.273L832.966 147H817.148L818.784 137.409H818.239C816.936 139.348 815.239 141.167 813.148 142.864C811.057 144.53 808.572 145.879 805.693 146.909C802.814 147.909 799.557 148.409 795.92 148.409ZM802.148 136.318C805.451 136.318 808.42 135.667 811.057 134.364C813.693 133.03 815.86 131.273 817.557 129.091C819.254 126.909 820.314 124.53 820.739 121.955L822.102 113.727C821.496 114.152 820.557 114.545 819.284 114.909C818.011 115.273 816.587 115.591 815.011 115.864C813.466 116.136 811.936 116.379 810.42 116.591C808.905 116.803 807.602 116.985 806.511 117.136C803.996 117.47 801.693 118.015 799.602 118.773C797.542 119.53 795.83 120.591 794.466 121.955C793.133 123.288 792.299 125.015 791.966 127.136C791.481 130.136 792.193 132.424 794.102 134C796.011 135.545 798.693 136.318 802.148 136.318ZM913.193 95.6364L898.057 97.2727C897.905 95.7273 897.436 94.2879 896.648 92.9545C895.86 91.6212 894.678 90.5606 893.102 89.7727C891.557 88.9545 889.557 88.5455 887.102 88.5455C883.527 88.5455 880.39 89.3485 877.693 90.9545C874.996 92.5606 873.466 94.6212 873.102 97.1364C872.769 99.0152 873.223 100.545 874.466 101.727C875.708 102.909 878.011 103.909 881.375 104.727L892.92 107.273C899.284 108.697 903.86 111 906.648 114.182C909.466 117.364 910.451 121.53 909.602 126.682C908.875 130.985 906.996 134.773 903.966 138.045C900.936 141.288 897.057 143.818 892.33 145.636C887.633 147.455 882.42 148.364 876.693 148.364C867.996 148.364 861.299 146.561 856.602 142.955C851.936 139.318 849.617 134.318 849.648 127.955L865.83 126.409C866.011 129.561 867.117 131.939 869.148 133.545C871.178 135.121 873.996 135.924 877.602 135.955C881.663 135.985 885.087 135.136 887.875 133.409C890.693 131.652 892.284 129.515 892.648 127C892.951 125.121 892.481 123.591 891.239 122.409C890.027 121.227 887.86 120.288 884.739 119.591L873.284 117.091C866.799 115.667 862.178 113.258 859.42 109.864C856.693 106.439 855.769 102.121 856.648 96.9091C857.375 92.6667 859.148 89.0151 861.966 85.9545C864.814 82.8636 868.466 80.4848 872.92 78.8182C877.375 77.1212 882.36 76.2727 887.875 76.2727C896.178 76.2727 902.436 78.0152 906.648 81.5C910.86 84.9848 913.042 89.697 913.193 95.6364ZM966.261 77.1818L964.125 89.9091H924.034L926.125 77.1818H966.261ZM938.761 60.4545H955.216L944.307 126C943.973 128.212 944.034 129.909 944.489 131.091C944.973 132.242 945.746 133.03 946.807 133.455C947.898 133.879 949.125 134.091 950.489 134.091C951.489 134.091 952.428 134.015 953.307 133.864C954.186 133.682 954.883 133.545 955.398 133.455L956.125 146.318C955.125 146.621 953.777 146.955 952.08 147.318C950.413 147.682 948.413 147.894 946.08 147.955C941.898 148.045 938.261 147.409 935.17 146.045C932.11 144.652 929.867 142.515 928.443 139.636C927.049 136.727 926.731 133.091 927.489 128.727L938.761 60.4545ZM1000.86 147L1016.32 53.9091H1033.18L1020.09 132.864H1061.09L1058.73 147H1000.86ZM1103.36 148.364C1096.36 148.364 1090.58 146.909 1086 144C1081.42 141.061 1078.21 136.909 1076.36 131.545C1074.55 126.152 1074.24 119.803 1075.45 112.5C1076.64 105.318 1079.05 99.0152 1082.68 93.5909C1086.32 88.1364 1090.86 83.8939 1096.32 80.8636C1101.8 77.803 1107.86 76.2727 1114.5 76.2727C1118.8 76.2727 1122.76 76.9697 1126.36 78.3636C1129.97 79.7273 1133.02 81.8485 1135.5 84.7273C1137.98 87.6061 1139.7 91.2727 1140.64 95.7273C1141.58 100.152 1141.53 105.424 1140.5 111.545L1139.73 116.591H1082.45L1084.23 105.5H1125.68C1126.23 102.348 1126.05 99.5455 1125.14 97.0909C1124.23 94.6061 1122.71 92.6515 1120.59 91.2273C1118.47 89.803 1115.82 89.0909 1112.64 89.0909C1109.39 89.0909 1106.36 89.9242 1103.55 91.5909C1100.76 93.2273 1098.41 95.3485 1096.5 97.9545C1094.59 100.561 1093.38 103.303 1092.86 106.182L1091 116.818C1090.33 121.182 1090.48 124.742 1091.45 127.5C1092.42 130.258 1094.12 132.288 1096.55 133.591C1098.97 134.894 1102.03 135.545 1105.73 135.545C1108.15 135.545 1110.39 135.212 1112.45 134.545C1114.52 133.879 1116.35 132.879 1117.95 131.545C1119.59 130.182 1120.95 128.515 1122.05 126.545L1137.09 128.273C1135.42 132.333 1132.98 135.879 1129.77 138.909C1126.56 141.909 1122.71 144.242 1118.23 145.909C1113.77 147.545 1108.82 148.364 1103.36 148.364ZM1168.55 148.409C1164.12 148.409 1160.27 147.621 1157 146.045C1153.73 144.439 1151.32 142.076 1149.77 138.955C1148.26 135.833 1147.88 131.985 1148.64 127.409C1149.3 123.47 1150.58 120.212 1152.45 117.636C1154.36 115.061 1156.7 113 1159.45 111.455C1162.24 109.879 1165.27 108.697 1168.55 107.909C1171.85 107.121 1175.21 106.545 1178.64 106.182C1182.82 105.758 1186.2 105.364 1188.77 105C1191.38 104.636 1193.33 104.091 1194.64 103.364C1195.94 102.606 1196.73 101.455 1197 99.9091V99.6364C1197.55 96.2121 1197 93.5606 1195.36 91.6818C1193.73 89.803 1191 88.8636 1187.18 88.8636C1183.18 88.8636 1179.82 89.7424 1177.09 91.5C1174.36 93.2576 1172.38 95.3333 1171.14 97.7273L1156.23 95.5455C1158.11 91.303 1160.68 87.7576 1163.95 84.9091C1167.23 82.0303 1171 79.8788 1175.27 78.4545C1179.58 77 1184.17 76.2727 1189.05 76.2727C1192.38 76.2727 1195.64 76.6667 1198.82 77.4545C1202.03 78.2424 1204.86 79.5455 1207.32 81.3636C1209.8 83.1515 1211.62 85.5909 1212.77 88.6818C1213.95 91.7727 1214.15 95.6364 1213.36 100.273L1205.59 147H1189.77L1191.41 137.409H1190.86C1189.56 139.348 1187.86 141.167 1185.77 142.864C1183.68 144.53 1181.2 145.879 1178.32 146.909C1175.44 147.909 1172.18 148.409 1168.55 148.409ZM1174.77 136.318C1178.08 136.318 1181.05 135.667 1183.68 134.364C1186.32 133.03 1188.48 131.273 1190.18 129.091C1191.88 126.909 1192.94 124.53 1193.36 121.955L1194.73 113.727C1194.12 114.152 1193.18 114.545 1191.91 114.909C1190.64 115.273 1189.21 115.591 1187.64 115.864C1186.09 116.136 1184.56 116.379 1183.05 116.591C1181.53 116.803 1180.23 116.985 1179.14 117.136C1176.62 117.47 1174.32 118.015 1172.23 118.773C1170.17 119.53 1168.45 120.591 1167.09 121.955C1165.76 123.288 1164.92 125.015 1164.59 127.136C1164.11 130.136 1164.82 132.424 1166.73 134C1168.64 135.545 1171.32 136.318 1174.77 136.318ZM1222.14 147L1233.77 77.1818H1249.73L1247.77 88.8182H1248.5C1250.41 84.7879 1253.11 81.6818 1256.59 79.5C1260.11 77.2879 1263.86 76.1818 1267.86 76.1818C1268.8 76.1818 1269.82 76.2273 1270.91 76.3182C1272 76.3788 1272.94 76.4848 1273.73 76.6364L1271.18 91.7727C1270.48 91.5303 1269.39 91.3182 1267.91 91.1364C1266.45 90.9242 1265.02 90.8182 1263.59 90.8182C1260.59 90.8182 1257.8 91.4697 1255.23 92.7727C1252.68 94.0455 1250.53 95.8182 1248.77 98.0909C1247.02 100.364 1245.88 102.985 1245.36 105.955L1238.59 147H1222.14ZM1296.28 106.091L1289.56 147H1273.06L1284.69 77.1818H1300.47L1298.47 89.0455H1299.33C1301.51 85.1364 1304.57 82.0303 1308.51 79.7273C1312.45 77.4242 1317.04 76.2727 1322.28 76.2727C1327.04 76.2727 1331.04 77.303 1334.28 79.3636C1337.53 81.3939 1339.83 84.3788 1341.19 88.3182C1342.56 92.2273 1342.77 96.9697 1341.83 102.545L1334.38 147H1317.92L1324.88 105.091C1325.66 100.455 1325.07 96.8182 1323.1 94.1818C1321.16 91.5151 1318.04 90.1818 1313.74 90.1818C1310.86 90.1818 1308.21 90.8182 1305.78 92.0909C1303.36 93.3333 1301.31 95.1364 1299.65 97.5C1298.01 99.8636 1296.89 102.727 1296.28 106.091ZM1381.74 148.364C1374.74 148.364 1368.95 146.909 1364.38 144C1359.8 141.061 1356.59 136.909 1354.74 131.545C1352.92 126.152 1352.62 119.803 1353.83 112.5C1355.01 105.318 1357.42 99.0152 1361.06 93.5909C1364.69 88.1364 1369.24 83.8939 1374.69 80.8636C1380.18 77.803 1386.24 76.2727 1392.88 76.2727C1397.18 76.2727 1401.13 76.9697 1404.74 78.3636C1408.34 79.7273 1411.39 81.8485 1413.88 84.7273C1416.36 87.6061 1418.07 91.2727 1419.01 95.7273C1419.95 100.152 1419.91 105.424 1418.88 111.545L1418.1 116.591H1360.83L1362.6 105.5H1404.06C1404.6 102.348 1404.42 99.5455 1403.51 97.0909C1402.6 94.6061 1401.09 92.6515 1398.97 91.2273C1396.84 89.803 1394.19 89.0909 1391.01 89.0909C1387.77 89.0909 1384.74 89.9242 1381.92 91.5909C1379.13 93.2273 1376.78 95.3485 1374.88 97.9545C1372.97 100.561 1371.75 103.303 1371.24 106.182L1369.38 116.818C1368.71 121.182 1368.86 124.742 1369.83 127.5C1370.8 130.258 1372.5 132.288 1374.92 133.591C1377.34 134.894 1380.41 135.545 1384.1 135.545C1386.53 135.545 1388.77 135.212 1390.83 134.545C1392.89 133.879 1394.72 132.879 1396.33 131.545C1397.97 130.182 1399.33 128.515 1400.42 126.545L1415.47 128.273C1413.8 132.333 1411.36 135.879 1408.15 138.909C1404.94 141.909 1401.09 144.242 1396.6 145.909C1392.15 147.545 1387.19 148.364 1381.74 148.364ZM1427.01 147L1438.65 77.1818H1454.6L1452.65 88.8182H1453.38C1455.28 84.7879 1457.98 81.6818 1461.47 79.5C1464.98 77.2879 1468.74 76.1818 1472.74 76.1818C1473.68 76.1818 1474.69 76.2273 1475.78 76.3182C1476.88 76.3788 1477.81 76.4848 1478.6 76.6364L1476.06 91.7727C1475.36 91.5303 1474.27 91.3182 1472.78 91.1364C1471.33 90.9242 1469.89 90.8182 1468.47 90.8182C1465.47 90.8182 1462.68 91.4697 1460.1 92.7727C1457.56 94.0455 1455.41 95.8182 1453.65 98.0909C1451.89 100.364 1450.75 102.985 1450.24 105.955L1443.47 147H1427.01Z" fill="white"/>
<path d="M699 172.455H1475.24V181.182H699V172.455Z" fill="white"/>
</svg>
