<svg width="2175" height="200" viewBox="0 0 2175 200" fill="none" xmlns="http://www.w3.org/2000/svg">
<path d="M586.364 147L601.818 53.9091H637.455C644.182 53.9091 649.606 54.9697 653.727 57.0909C657.848 59.1818 660.712 62.0455 662.318 65.6818C663.955 69.3182 664.379 73.4394 663.591 78.0455C662.955 81.803 661.682 85.0303 659.773 87.7273C657.894 90.3939 655.591 92.5758 652.864 94.2727C650.136 95.9394 647.212 97.1364 644.091 97.8636L643.909 98.7727C647.182 98.9242 650.182 99.9242 652.909 101.773C655.636 103.621 657.697 106.227 659.091 109.591C660.485 112.924 660.803 116.939 660.045 121.636C659.227 126.455 657.333 130.788 654.364 134.636C651.394 138.455 647.364 141.47 642.273 143.682C637.212 145.894 631.136 147 624.045 147H586.364ZM605.591 132.909H623.727C629.818 132.909 634.424 131.742 637.545 129.409C640.667 127.045 642.53 124.015 643.136 120.318C643.591 117.561 643.318 115.076 642.318 112.864C641.318 110.621 639.667 108.864 637.364 107.591C635.061 106.288 632.182 105.636 628.727 105.636H610.091L605.591 132.909ZM612.182 93.5H628.864C631.773 93.5 634.47 92.9697 636.955 91.9091C639.47 90.8182 641.561 89.2879 643.227 87.3182C644.924 85.3182 645.97 82.9545 646.364 80.2273C647 76.6212 646.242 73.6515 644.091 71.3182C641.939 68.9848 638.394 67.8182 633.455 67.8182H616.364L612.182 93.5ZM669.761 147L681.398 77.1818H697.852L686.216 147H669.761ZM692.034 67.1818C689.398 67.1818 687.216 66.303 685.489 64.5454C683.761 62.7879 683.004 60.6818 683.216 58.2273C683.428 55.7727 684.534 53.6667 686.534 51.9091C688.564 50.1515 690.883 49.2727 693.489 49.2727C696.125 49.2727 698.292 50.1515 699.989 51.9091C701.716 53.6667 702.473 55.7727 702.261 58.2273C702.08 60.6818 700.973 62.7879 698.943 64.5454C696.943 66.303 694.64 67.1818 692.034 67.1818ZM749.636 77.1818L747.5 89.9091H707.409L709.5 77.1818H749.636ZM722.136 60.4545H738.591L727.682 126C727.348 128.212 727.409 129.909 727.864 131.091C728.348 132.242 729.121 133.03 730.182 133.455C731.273 133.879 732.5 134.091 733.864 134.091C734.864 134.091 735.803 134.015 736.682 133.864C737.561 133.682 738.258 133.545 738.773 133.455L739.5 146.318C738.5 146.621 737.152 146.955 735.455 147.318C733.788 147.682 731.788 147.894 729.455 147.955C725.273 148.045 721.636 147.409 718.545 146.045C715.485 144.652 713.242 142.515 711.818 139.636C710.424 136.727 710.106 133.091 710.864 128.727L722.136 60.4545ZM781.284 148.364C774.314 148.364 768.587 146.833 764.102 143.773C759.617 140.712 756.481 136.485 754.693 131.091C752.936 125.667 752.648 119.424 753.83 112.364C754.981 105.273 757.36 99.0152 760.966 93.5909C764.602 88.1364 769.178 83.8939 774.693 80.8636C780.208 77.803 786.375 76.2727 793.193 76.2727C798.86 76.2727 803.693 77.3182 807.693 79.4091C811.723 81.4697 814.723 84.3939 816.693 88.1818C818.693 91.9394 819.466 96.3333 819.011 101.364H803.239C803.178 98 802.133 95.197 800.102 92.9545C798.072 90.6818 795.102 89.5455 791.193 89.5455C787.799 89.5455 784.678 90.4545 781.83 92.2727C778.981 94.0606 776.572 96.6364 774.602 100C772.633 103.364 771.269 107.394 770.511 112.091C769.723 116.848 769.739 120.939 770.557 124.364C771.405 127.758 772.936 130.379 775.148 132.227C777.39 134.045 780.223 134.955 783.648 134.955C786.072 134.955 788.33 134.5 790.42 133.591C792.511 132.652 794.345 131.303 795.92 129.545C797.527 127.788 798.784 125.652 799.693 123.136H815.42C814.178 128.076 811.966 132.455 808.784 136.273C805.633 140.061 801.723 143.03 797.057 145.182C792.39 147.303 787.133 148.364 781.284 148.364ZM855.523 148.364C848.644 148.364 842.917 146.848 838.341 143.818C833.795 140.788 830.598 136.53 828.75 131.045C826.902 125.561 826.568 119.197 827.75 111.955C828.932 104.803 831.295 98.5455 834.841 93.1818C838.417 87.8182 842.917 83.6667 848.341 80.7273C853.795 77.7576 859.902 76.2727 866.659 76.2727C873.538 76.2727 879.25 77.803 883.795 80.8636C888.341 83.8939 891.538 88.1515 893.386 93.6364C895.265 99.1212 895.614 105.515 894.432 112.818C893.28 119.939 890.902 126.167 887.295 131.5C883.72 136.833 879.22 140.985 873.795 143.955C868.371 146.894 862.28 148.364 855.523 148.364ZM856.886 135.182C860.705 135.182 864.053 134.152 866.932 132.091C869.841 130 872.22 127.197 874.068 123.682C875.947 120.136 877.25 116.197 877.977 111.864C878.644 107.682 878.659 103.894 878.023 100.5C877.386 97.0758 876.023 94.3636 873.932 92.3636C871.871 90.3333 869.008 89.3182 865.341 89.3182C861.523 89.3182 858.144 90.3788 855.205 92.5C852.295 94.5909 849.917 97.4091 848.068 100.955C846.22 104.47 844.947 108.394 844.25 112.727C843.553 116.909 843.523 120.697 844.159 124.091C844.795 127.485 846.159 130.182 848.25 132.182C850.341 134.182 853.22 135.182 856.886 135.182ZM902.761 147L914.398 77.1818H930.852L919.216 147H902.761ZM925.034 67.1818C922.398 67.1818 920.216 66.303 918.489 64.5454C916.761 62.7879 916.004 60.6818 916.216 58.2273C916.428 55.7727 917.534 53.6667 919.534 51.9091C921.564 50.1515 923.883 49.2727 926.489 49.2727C929.125 49.2727 931.292 50.1515 932.989 51.9091C934.716 53.6667 935.473 55.7727 935.261 58.2273C935.08 60.6818 933.973 62.7879 931.943 64.5454C929.943 66.303 927.64 67.1818 925.034 67.1818ZM959.409 106.091L952.682 147H936.182L947.818 77.1818H963.591L961.591 89.0455H962.455C964.636 85.1364 967.697 82.0303 971.636 79.7273C975.576 77.4242 980.167 76.2727 985.409 76.2727C990.167 76.2727 994.167 77.303 997.409 79.3636C1000.65 81.3939 1002.95 84.3788 1004.32 88.3182C1005.68 92.2273 1005.89 96.9697 1004.95 102.545L997.5 147H981.045L988 105.091C988.788 100.455 988.197 96.8182 986.227 94.1818C984.288 91.5151 981.167 90.1818 976.864 90.1818C973.985 90.1818 971.333 90.8182 968.909 92.0909C966.485 93.3333 964.439 95.1364 962.773 97.5C961.136 99.8636 960.015 102.727 959.409 106.091ZM1045.89 147L1057.52 77.1818H1073.98L1062.34 147H1045.89ZM1068.16 67.1818C1065.52 67.1818 1063.34 66.303 1061.61 64.5454C1059.89 62.7879 1059.13 60.6818 1059.34 58.2273C1059.55 55.7727 1060.66 53.6667 1062.66 51.9091C1064.69 50.1515 1067.01 49.2727 1069.61 49.2727C1072.25 49.2727 1074.42 50.1515 1076.11 51.9091C1077.84 53.6667 1078.6 55.7727 1078.39 58.2273C1078.2 60.6818 1077.1 62.7879 1075.07 64.5454C1073.07 66.303 1070.77 67.1818 1068.16 67.1818ZM1142.94 95.6364L1127.81 97.2727C1127.66 95.7273 1127.19 94.2879 1126.4 92.9545C1125.61 91.6212 1124.43 90.5606 1122.85 89.7727C1121.31 88.9545 1119.31 88.5455 1116.85 88.5455C1113.28 88.5455 1110.14 89.3485 1107.44 90.9545C1104.75 92.5606 1103.22 94.6212 1102.85 97.1364C1102.52 99.0152 1102.97 100.545 1104.22 101.727C1105.46 102.909 1107.76 103.909 1111.12 104.727L1122.67 107.273C1129.03 108.697 1133.61 111 1136.4 114.182C1139.22 117.364 1140.2 121.53 1139.35 126.682C1138.63 130.985 1136.75 134.773 1133.72 138.045C1130.69 141.288 1126.81 143.818 1122.08 145.636C1117.38 147.455 1112.17 148.364 1106.44 148.364C1097.75 148.364 1091.05 146.561 1086.35 142.955C1081.69 139.318 1079.37 134.318 1079.4 127.955L1095.58 126.409C1095.76 129.561 1096.87 131.939 1098.9 133.545C1100.93 135.121 1103.75 135.924 1107.35 135.955C1111.41 135.985 1114.84 135.136 1117.62 133.409C1120.44 131.652 1122.03 129.515 1122.4 127C1122.7 125.121 1122.23 123.591 1120.99 122.409C1119.78 121.227 1117.61 120.288 1114.49 119.591L1103.03 117.091C1096.55 115.667 1091.93 113.258 1089.17 109.864C1086.44 106.439 1085.52 102.121 1086.4 96.9091C1087.13 92.6667 1088.9 89.0151 1091.72 85.9545C1094.56 82.8636 1098.22 80.4848 1102.67 78.8182C1107.12 77.1212 1112.11 76.2727 1117.62 76.2727C1125.93 76.2727 1132.19 78.0152 1136.4 81.5C1140.61 84.9848 1142.79 89.697 1142.94 95.6364ZM1228.31 77.1818L1226.17 89.9091H1184.9L1187.03 77.1818H1228.31ZM1185.67 147L1198.44 70.5909C1199.17 65.8939 1200.76 61.9848 1203.22 58.8636C1205.7 55.7424 1208.72 53.4091 1212.26 51.8636C1215.84 50.3182 1219.64 49.5454 1223.67 49.5454C1226.55 49.5454 1229.05 49.7727 1231.17 50.2273C1233.29 50.6818 1234.84 51.0909 1235.81 51.4545L1230.49 64.1818C1229.79 63.9697 1228.94 63.7576 1227.94 63.5454C1226.97 63.303 1225.84 63.1818 1224.53 63.1818C1221.47 63.1818 1219.19 63.9242 1217.67 65.4091C1216.16 66.8636 1215.16 68.9545 1214.67 71.6818L1202.17 147H1185.67ZM1279 117.636L1285.77 77.1818H1302.23L1290.59 147H1274.64L1276.73 134.591H1276C1273.82 138.5 1270.7 141.697 1266.64 144.182C1262.61 146.667 1257.97 147.909 1252.73 147.909C1248.15 147.909 1244.29 146.894 1241.14 144.864C1237.98 142.803 1235.74 139.818 1234.41 135.909C1233.11 131.97 1232.91 127.212 1233.82 121.636L1241.27 77.1818H1257.73L1250.73 119.091C1250.03 123.515 1250.67 127.03 1252.64 129.636C1254.64 132.242 1257.61 133.545 1261.55 133.545C1263.97 133.545 1266.41 132.955 1268.86 131.773C1271.35 130.591 1273.52 128.833 1275.36 126.5C1277.21 124.136 1278.42 121.182 1279 117.636ZM1354.01 77.1818L1351.88 89.9091H1311.78L1313.88 77.1818H1354.01ZM1326.51 60.4545H1342.97L1332.06 126C1331.72 128.212 1331.78 129.909 1332.24 131.091C1332.72 132.242 1333.5 133.03 1334.56 133.455C1335.65 133.879 1336.88 134.091 1338.24 134.091C1339.24 134.091 1340.18 134.015 1341.06 133.864C1341.94 133.682 1342.63 133.545 1343.15 133.455L1343.88 146.318C1342.88 146.621 1341.53 146.955 1339.83 147.318C1338.16 147.682 1336.16 147.894 1333.83 147.955C1329.65 148.045 1326.01 147.409 1322.92 146.045C1319.86 144.652 1317.62 142.515 1316.19 139.636C1314.8 136.727 1314.48 133.091 1315.24 128.727L1326.51 60.4545ZM1405.5 117.636L1412.27 77.1818H1428.73L1417.09 147H1401.14L1403.23 134.591H1402.5C1400.32 138.5 1397.2 141.697 1393.14 144.182C1389.11 146.667 1384.47 147.909 1379.23 147.909C1374.65 147.909 1370.79 146.894 1367.64 144.864C1364.48 142.803 1362.24 139.818 1360.91 135.909C1359.61 131.97 1359.41 127.212 1360.32 121.636L1367.77 77.1818H1384.23L1377.23 119.091C1376.53 123.515 1377.17 127.03 1379.14 129.636C1381.14 132.242 1384.11 133.545 1388.05 133.545C1390.47 133.545 1392.91 132.955 1395.36 131.773C1397.85 130.591 1400.02 128.833 1401.86 126.5C1403.71 124.136 1404.92 121.182 1405.5 117.636ZM1434.01 147L1445.65 77.1818H1461.6L1459.65 88.8182H1460.38C1462.28 84.7879 1464.98 81.6818 1468.47 79.5C1471.98 77.2879 1475.74 76.1818 1479.74 76.1818C1480.68 76.1818 1481.69 76.2273 1482.78 76.3182C1483.88 76.3788 1484.81 76.4848 1485.6 76.6364L1483.06 91.7727C1482.36 91.5303 1481.27 91.3182 1479.78 91.1364C1478.33 90.9242 1476.89 90.8182 1475.47 90.8182C1472.47 90.8182 1469.68 91.4697 1467.1 92.7727C1464.56 94.0455 1462.41 95.8182 1460.65 98.0909C1458.89 100.364 1457.75 102.985 1457.24 105.955L1450.47 147H1434.01ZM1512.74 148.364C1505.74 148.364 1499.95 146.909 1495.38 144C1490.8 141.061 1487.59 136.909 1485.74 131.545C1483.92 126.152 1483.62 119.803 1484.83 112.5C1486.01 105.318 1488.42 99.0152 1492.06 93.5909C1495.69 88.1364 1500.24 83.8939 1505.69 80.8636C1511.18 77.803 1517.24 76.2727 1523.88 76.2727C1528.18 76.2727 1532.13 76.9697 1535.74 78.3636C1539.34 79.7273 1542.39 81.8485 1544.88 84.7273C1547.36 87.6061 1549.07 91.2727 1550.01 95.7273C1550.95 100.152 1550.91 105.424 1549.88 111.545L1549.1 116.591H1491.83L1493.6 105.5H1535.06C1535.6 102.348 1535.42 99.5455 1534.51 97.0909C1533.6 94.6061 1532.09 92.6515 1529.97 91.2273C1527.84 89.803 1525.19 89.0909 1522.01 89.0909C1518.77 89.0909 1515.74 89.9242 1512.92 91.5909C1510.13 93.2273 1507.78 95.3485 1505.88 97.9545C1503.97 100.561 1502.75 103.303 1502.24 106.182L1500.38 116.818C1499.71 121.182 1499.86 124.742 1500.83 127.5C1501.8 130.258 1503.5 132.288 1505.92 133.591C1508.34 134.894 1511.41 135.545 1515.1 135.545C1517.53 135.545 1519.77 135.212 1521.83 134.545C1523.89 133.879 1525.72 132.879 1527.33 131.545C1528.97 130.182 1530.33 128.515 1531.42 126.545L1546.47 128.273C1544.8 132.333 1542.36 135.879 1539.15 138.909C1535.94 141.909 1532.09 144.242 1527.6 145.909C1523.15 147.545 1518.19 148.364 1512.74 148.364ZM1569.1 148C1566.31 148 1564.01 147.03 1562.19 145.091C1560.38 143.152 1559.53 140.788 1559.65 138C1559.77 135.273 1560.88 132.955 1562.97 131.045C1565.06 129.136 1567.47 128.182 1570.19 128.182C1572.89 128.182 1575.18 129.152 1577.06 131.091C1578.97 133.03 1579.83 135.333 1579.65 138C1579.53 139.879 1578.95 141.576 1577.92 143.091C1576.92 144.606 1575.65 145.803 1574.1 146.682C1572.56 147.561 1570.89 148 1569.1 148Z" fill="white"/>
<path d="M583 172.455H1592.56V181.182H583V172.455Z" fill="white"/>
</svg>
