<svg width="2175" height="150" viewBox="0 0 2175 150" fill="none" xmlns="http://www.w3.org/2000/svg">
<path d="M850.682 75L858.409 28.4545H888.682L887.5 35.5227H865.659L863.568 48.1591H883.841L882.659 55.2273H862.386L860.295 67.9318H882.318L881.136 75H850.682ZM901.739 40.0909L906.648 52.9773L915.943 40.0909H924.648L911.216 57.5455L919.011 75H910.352L905.057 62.4318L895.648 75H886.92L900.466 57.5455L893.011 40.0909H901.739ZM923.034 88.0909L931.08 40.0909H939.17L938.239 45.8636H938.716C939.261 45.0152 939.996 44.1136 940.92 43.1591C941.86 42.1894 943.049 41.3636 944.489 40.6818C945.928 39.9848 947.678 39.6364 949.739 39.6364C952.42 39.6364 954.731 40.3258 956.67 41.7045C958.61 43.0682 959.996 45.0909 960.83 47.7727C961.678 50.4394 961.784 53.7121 961.148 57.5909C960.511 61.4242 959.337 64.6818 957.625 67.3636C955.913 70.0455 953.86 72.0909 951.466 73.5C949.072 74.9091 946.504 75.6136 943.761 75.6136C941.761 75.6136 940.148 75.2803 938.92 74.6136C937.708 73.947 936.792 73.1439 936.17 72.2045C935.549 71.25 935.087 70.3485 934.784 69.5H934.42L931.33 88.0909H923.034ZM936.239 57.5455C935.875 59.803 935.867 61.7803 936.216 63.4773C936.58 65.1742 937.299 66.5 938.375 67.4545C939.451 68.3939 940.86 68.8636 942.602 68.8636C944.42 68.8636 946.011 68.3788 947.375 67.4091C948.754 66.4242 949.898 65.0833 950.807 63.3864C951.731 61.6742 952.383 59.7273 952.761 57.5455C953.11 55.3788 953.11 53.4545 952.761 51.7727C952.413 50.0909 951.708 48.7727 950.648 47.8182C949.587 46.8636 948.148 46.3864 946.33 46.3864C944.557 46.3864 942.973 46.8485 941.58 47.7727C940.201 48.697 939.057 49.9924 938.148 51.6591C937.239 53.3258 936.602 55.2879 936.239 57.5455ZM980.619 75.6818C977.119 75.6818 974.225 74.9545 971.938 73.5C969.65 72.0303 968.044 69.9545 967.119 67.2727C966.21 64.5758 966.059 61.4015 966.665 57.75C967.256 54.1591 968.46 51.0076 970.278 48.2955C972.097 45.5682 974.369 43.447 977.097 41.9318C979.839 40.4015 982.869 39.6364 986.188 39.6364C988.339 39.6364 990.316 39.9848 992.119 40.6818C993.922 41.3636 995.445 42.4242 996.688 43.8636C997.93 45.303 998.786 47.1364 999.256 49.3636C999.725 51.5758 999.703 54.2121 999.188 57.2727L998.801 59.7955H970.165L971.051 54.25H991.778C992.051 52.6742 991.96 51.2727 991.506 50.0455C991.051 48.803 990.294 47.8258 989.233 47.1136C988.172 46.4015 986.847 46.0455 985.256 46.0455C983.634 46.0455 982.119 46.4621 980.71 47.2955C979.316 48.1136 978.142 49.1742 977.188 50.4773C976.233 51.7803 975.627 53.1515 975.369 54.5909L974.438 59.9091C974.104 62.0909 974.18 63.8712 974.665 65.25C975.15 66.6288 975.998 67.6439 977.21 68.2955C978.422 68.947 979.953 69.2727 981.801 69.2727C983.013 69.2727 984.134 69.1061 985.165 68.7727C986.195 68.4394 987.112 67.9394 987.915 67.2727C988.733 66.5909 989.415 65.7576 989.96 64.7727L997.483 65.6364C996.65 67.6667 995.43 69.4394 993.824 70.9545C992.218 72.4545 990.294 73.6212 988.051 74.4545C985.824 75.2727 983.347 75.6818 980.619 75.6818ZM1003.26 75L1009.07 40.0909H1017.05L1016.07 45.9091H1016.44C1017.39 43.8939 1018.74 42.3409 1020.48 41.25C1022.24 40.1439 1024.12 39.5909 1026.12 39.5909C1026.59 39.5909 1027.1 39.6136 1027.64 39.6591C1028.19 39.6894 1028.66 39.7424 1029.05 39.8182L1027.78 47.3864C1027.43 47.2652 1026.88 47.1591 1026.14 47.0682C1025.41 46.9621 1024.7 46.9091 1023.98 46.9091C1022.48 46.9091 1021.09 47.2348 1019.8 47.8864C1018.53 48.5227 1017.45 49.4091 1016.57 50.5455C1015.7 51.6818 1015.13 52.9924 1014.87 54.4773L1011.48 75H1003.26ZM1053.82 40.0909L1052.75 46.4545H1032.7L1033.75 40.0909H1053.82ZM1040.07 31.7273H1048.3L1042.84 64.5C1042.67 65.6061 1042.7 66.4545 1042.93 67.0455C1043.17 67.6212 1043.56 68.0152 1044.09 68.2273C1044.64 68.4394 1045.25 68.5455 1045.93 68.5455C1046.43 68.5455 1046.9 68.5076 1047.34 68.4318C1047.78 68.3409 1048.13 68.2727 1048.39 68.2273L1048.75 74.6591C1048.25 74.8106 1047.58 74.9773 1046.73 75.1591C1045.89 75.3409 1044.89 75.447 1043.73 75.4773C1041.64 75.5227 1039.82 75.2045 1038.27 74.5227C1036.74 73.8258 1035.62 72.7576 1034.91 71.3182C1034.21 69.8636 1034.05 68.0455 1034.43 65.8636L1040.07 31.7273ZM1054.88 75L1060.7 40.0909H1068.93L1063.11 75H1054.88ZM1066.02 35.0909C1064.7 35.0909 1063.61 34.6515 1062.74 33.7727C1061.88 32.8939 1061.5 31.8409 1061.61 30.6136C1061.71 29.3864 1062.27 28.3333 1063.27 27.4545C1064.28 26.5758 1065.44 26.1364 1066.74 26.1364C1068.06 26.1364 1069.15 26.5758 1069.99 27.4545C1070.86 28.3333 1071.24 29.3864 1071.13 30.6136C1071.04 31.8409 1070.49 32.8939 1069.47 33.7727C1068.47 34.6515 1067.32 35.0909 1066.02 35.0909ZM1103.41 49.3182L1095.84 50.1364C1095.77 49.3636 1095.53 48.6439 1095.14 47.9773C1094.74 47.3106 1094.15 46.7803 1093.36 46.3864C1092.59 45.9773 1091.59 45.7727 1090.36 45.7727C1088.58 45.7727 1087.01 46.1742 1085.66 46.9773C1084.31 47.7803 1083.55 48.8106 1083.36 50.0682C1083.2 51.0076 1083.42 51.7727 1084.05 52.3636C1084.67 52.9545 1085.82 53.4545 1087.5 53.8636L1093.27 55.1364C1096.45 55.8485 1098.74 57 1100.14 58.5909C1101.55 60.1818 1102.04 62.2652 1101.61 64.8409C1101.25 66.9924 1100.31 68.8864 1098.8 70.5227C1097.28 72.1439 1095.34 73.4091 1092.98 74.3182C1090.63 75.2273 1088.02 75.6818 1085.16 75.6818C1080.81 75.6818 1077.46 74.7803 1075.11 72.9773C1072.78 71.1591 1071.62 68.6591 1071.64 65.4773L1079.73 64.7045C1079.82 66.2803 1080.37 67.4697 1081.39 68.2727C1082.4 69.0606 1083.81 69.4621 1085.61 69.4773C1087.64 69.4924 1089.36 69.0682 1090.75 68.2045C1092.16 67.3258 1092.95 66.2576 1093.14 65C1093.29 64.0606 1093.05 63.2955 1092.43 62.7045C1091.83 62.1136 1090.74 61.6439 1089.18 61.2955L1083.45 60.0455C1080.21 59.3333 1077.9 58.1288 1076.52 56.4318C1075.16 54.7197 1074.7 52.5606 1075.14 49.9545C1075.5 47.8333 1076.39 46.0076 1077.8 44.4773C1079.22 42.9318 1081.05 41.7424 1083.27 40.9091C1085.5 40.0606 1087.99 39.6364 1090.75 39.6364C1094.9 39.6364 1098.03 40.5076 1100.14 42.25C1102.24 43.9924 1103.33 46.3485 1103.41 49.3182ZM1122.06 75.6818C1118.56 75.6818 1115.66 74.9545 1113.38 73.5C1111.09 72.0303 1109.48 69.9545 1108.56 67.2727C1107.65 64.5758 1107.5 61.4015 1108.1 57.75C1108.69 54.1591 1109.9 51.0076 1111.72 48.2955C1113.53 45.5682 1115.81 43.447 1118.53 41.9318C1121.28 40.4015 1124.31 39.6364 1127.62 39.6364C1129.78 39.6364 1131.75 39.9848 1133.56 40.6818C1135.36 41.3636 1136.88 42.4242 1138.12 43.8636C1139.37 45.303 1140.22 47.1364 1140.69 49.3636C1141.16 51.5758 1141.14 54.2121 1140.62 57.2727L1140.24 59.7955H1111.6L1112.49 54.25H1133.22C1133.49 52.6742 1133.4 51.2727 1132.94 50.0455C1132.49 48.803 1131.73 47.8258 1130.67 47.1136C1129.61 46.4015 1128.28 46.0455 1126.69 46.0455C1125.07 46.0455 1123.56 46.4621 1122.15 47.2955C1120.75 48.1136 1119.58 49.1742 1118.62 50.4773C1117.67 51.7803 1117.06 53.1515 1116.81 54.5909L1115.88 59.9091C1115.54 62.0909 1115.62 63.8712 1116.1 65.25C1116.59 66.6288 1117.44 67.6439 1118.65 68.2955C1119.86 68.947 1121.39 69.2727 1123.24 69.2727C1124.45 69.2727 1125.57 69.1061 1126.6 68.7727C1127.63 68.4394 1128.55 67.9394 1129.35 67.2727C1130.17 66.5909 1130.85 65.7576 1131.4 64.7727L1138.92 65.6364C1138.09 67.6667 1136.87 69.4394 1135.26 70.9545C1133.66 72.4545 1131.73 73.6212 1129.49 74.4545C1127.26 75.2727 1124.78 75.6818 1122.06 75.6818ZM1165.43 35.5227L1166.61 28.4545H1203.75L1202.57 35.5227H1188.18L1181.64 75H1173.27L1179.82 35.5227H1165.43ZM1213.07 75.6818C1209.63 75.6818 1206.77 74.9242 1204.48 73.4091C1202.21 71.8939 1200.61 69.7652 1199.69 67.0227C1198.76 64.2803 1198.6 61.0985 1199.19 57.4773C1199.78 53.9015 1200.96 50.7727 1202.73 48.0909C1204.52 45.4091 1206.77 43.3333 1209.48 41.8636C1212.21 40.3788 1215.26 39.6364 1218.64 39.6364C1222.08 39.6364 1224.94 40.4015 1227.21 41.9318C1229.48 43.447 1231.08 45.5758 1232.01 48.3182C1232.95 51.0606 1233.12 54.2576 1232.53 57.9091C1231.95 61.4697 1230.76 64.5833 1228.96 67.25C1227.17 69.9167 1224.92 71.9924 1222.21 73.4773C1219.5 74.947 1216.45 75.6818 1213.07 75.6818ZM1213.76 69.0909C1215.66 69.0909 1217.34 68.5758 1218.78 67.5455C1220.23 66.5 1221.42 65.0985 1222.35 63.3409C1223.29 61.5682 1223.94 59.5985 1224.3 57.4318C1224.63 55.3409 1224.64 53.447 1224.32 51.75C1224.01 50.0379 1223.32 48.6818 1222.28 47.6818C1221.25 46.6667 1219.82 46.1591 1217.98 46.1591C1216.07 46.1591 1214.38 46.6894 1212.91 47.75C1211.46 48.7955 1210.27 50.2045 1209.35 51.9773C1208.42 53.7348 1207.79 55.697 1207.44 57.8636C1207.09 59.9545 1207.07 61.8485 1207.39 63.5455C1207.71 65.2424 1208.39 66.5909 1209.44 67.5909C1210.48 68.5909 1211.92 69.0909 1213.76 69.0909ZM1252.01 75.6818C1248.57 75.6818 1245.71 74.9242 1243.42 73.4091C1241.15 71.8939 1239.55 69.7652 1238.62 67.0227C1237.7 64.2803 1237.53 61.0985 1238.12 57.4773C1238.72 53.9015 1239.9 50.7727 1241.67 48.0909C1243.46 45.4091 1245.71 43.3333 1248.42 41.8636C1251.15 40.3788 1254.2 39.6364 1257.58 39.6364C1261.02 39.6364 1263.88 40.4015 1266.15 41.9318C1268.42 43.447 1270.02 45.5758 1270.94 48.3182C1271.88 51.0606 1272.06 54.2576 1271.47 57.9091C1270.89 61.4697 1269.7 64.5833 1267.9 67.25C1266.11 69.9167 1263.86 71.9924 1261.15 73.4773C1258.44 74.947 1255.39 75.6818 1252.01 75.6818ZM1252.69 69.0909C1254.6 69.0909 1256.28 68.5758 1257.72 67.5455C1259.17 66.5 1260.36 65.0985 1261.28 63.3409C1262.22 61.5682 1262.88 59.5985 1263.24 57.4318C1263.57 55.3409 1263.58 53.447 1263.26 51.75C1262.94 50.0379 1262.26 48.6818 1261.22 47.6818C1260.19 46.6667 1258.75 46.1591 1256.92 46.1591C1255.01 46.1591 1253.32 46.6894 1251.85 47.75C1250.4 48.7955 1249.21 50.2045 1248.28 51.9773C1247.36 53.7348 1246.72 55.697 1246.38 57.8636C1246.03 59.9545 1246.01 61.8485 1246.33 63.5455C1246.65 65.2424 1247.33 66.5909 1248.38 67.5909C1249.42 68.5909 1250.86 69.0909 1252.69 69.0909ZM1291.59 28.4545L1283.86 75H1275.63L1283.36 28.4545H1291.59ZM1324.16 49.3182L1316.59 50.1364C1316.52 49.3636 1316.28 48.6439 1315.89 47.9773C1315.49 47.3106 1314.9 46.7803 1314.11 46.3864C1313.34 45.9773 1312.34 45.7727 1311.11 45.7727C1309.33 45.7727 1307.76 46.1742 1306.41 46.9773C1305.06 47.7803 1304.3 48.8106 1304.11 50.0682C1303.95 51.0076 1304.17 51.7727 1304.8 52.3636C1305.42 52.9545 1306.57 53.4545 1308.25 53.8636L1314.02 55.1364C1317.2 55.8485 1319.49 57 1320.89 58.5909C1322.3 60.1818 1322.79 62.2652 1322.36 64.8409C1322 66.9924 1321.06 68.8864 1319.55 70.5227C1318.03 72.1439 1316.09 73.4091 1313.73 74.3182C1311.38 75.2273 1308.77 75.6818 1305.91 75.6818C1301.56 75.6818 1298.21 74.7803 1295.86 72.9773C1293.53 71.1591 1292.37 68.6591 1292.39 65.4773L1300.48 64.7045C1300.57 66.2803 1301.12 67.4697 1302.14 68.2727C1303.15 69.0606 1304.56 69.4621 1306.36 69.4773C1308.39 69.4924 1310.11 69.0682 1311.5 68.2045C1312.91 67.3258 1313.7 66.2576 1313.89 65C1314.04 64.0606 1313.8 63.2955 1313.18 62.7045C1312.58 62.1136 1311.49 61.6439 1309.93 61.2955L1304.2 60.0455C1300.96 59.3333 1298.65 58.1288 1297.27 56.4318C1295.91 54.7197 1295.45 52.5606 1295.89 49.9545C1296.25 47.8333 1297.14 46.0076 1298.55 44.4773C1299.97 42.9318 1301.8 41.7424 1304.02 40.9091C1306.25 40.0606 1308.74 39.6364 1311.5 39.6364C1315.65 39.6364 1318.78 40.5076 1320.89 42.25C1322.99 43.9924 1324.08 46.3485 1324.16 49.3182Z" fill="white"/>
<path d="M849 87.7273H919.511V92.0909H849V87.7273ZM935.754 87.7273H1326.14V92.0909H935.754V87.7273Z" fill="white"/>
</svg>
